<!-- icon666.com - MILLIONS vector ICONS FREE --><svg viewBox="0 0 423.24754 423" xmlns="http://www.w3.org/2000/svg"><path d="m150.1875 423.371094c-82.8125 0-150.1875-67.375-150.1875-150.1875s67.375-150.1875 150.1875-150.1875c11.328125 0 22.628906 1.265625 33.597656 3.773437 3.671875.832031 5.972656 4.492188 5.136719 8.171875-.839844 3.675782-4.472656 6.015625-8.175781 5.136719-9.972656-2.273437-20.25-3.429687-30.558594-3.429687-75.28125 0-136.53125 61.25-136.53125 136.535156s61.25 136.53125 136.53125 136.53125c75.285156 0 136.535156-61.246094 136.535156-136.53125 0-16.125-2.78125-31.90625-8.265625-46.894532-1.296875-3.539062.523438-7.460937 4.066407-8.761718 3.542968-1.277344 7.460937.527344 8.753906 4.070312 6.039062 16.5 9.097656 33.851563 9.097656 51.585938 0 82.8125-67.375 150.1875-150.1875 150.1875zm0 0"></path><path d="m150.1875 300.488281c-16.347656 0-31.34375-5.757812-40.117188-15.410156-2.535156-2.796875-2.328124-7.109375.460938-9.648437 2.789062-2.53125 7.109375-2.316407 9.644531.460937 6.132813 6.753906 17.632813 10.949219 30.007813 10.949219 12.242187 0 23.675781-4.128906 29.839844-10.769532 2.570312-2.757812 6.882812-2.914062 9.648437-.351562 2.765625 2.566406 2.921875 6.886719.359375 9.644531-8.796875 9.472657-23.691406 15.125-39.84375 15.125zm0 0"></path><path d="m102.398438 211.742188c0 7.542968-6.109376 13.65625-13.652344 13.65625-7.539063 0-13.652344-6.113282-13.652344-13.65625 0-7.539063 6.113281-13.652344 13.652344-13.652344 7.542968 0 13.652344 6.113281 13.652344 13.652344zm0 0"></path><path d="m225.28125 211.742188c0 7.542968-6.113281 13.65625-13.65625 13.65625-7.539062 0-13.652344-6.113282-13.652344-13.65625 0-7.539063 6.113282-13.652344 13.652344-13.652344 7.542969 0 13.65625 6.113281 13.65625 13.652344zm0 0"></path><path d="m293.546875 232.222656c-7.339844 0-14.613281-2.425781-20.480469-6.824218l-81.917968-61.441407c-7.292969-5.46875-12.023438-13.453125-13.3125-22.480469-1.289063-9.027343 1.015624-18.015624 6.480468-25.308593 11.300782-15.050781 32.726563-18.105469 47.785156-6.832031l51.269532 38.453124 76.265625-130.738281c9.488281-16.253906 30.429687-21.765625 46.683593-12.285156 16.257813 9.484375 21.769532 30.429687 12.285157 46.683594l-95.574219 163.839843c-4.898438 8.402344-13.179688 14.328126-22.714844 16.261719-2.242187.445313-4.515625.671875-6.769531.671875zm-81.894531-116.039062c-6.230469 0-12.390625 2.828125-16.410156 8.179687-6.773438 9.035157-4.9375 21.898438 4.097656 28.675781l81.921875 61.4375c4.597656 3.453126 10.609375 4.8125 16.359375 3.6875 5.707031-1.152343 10.675781-4.714843 13.617187-9.753906l95.574219-163.839844c2.753906-4.726562 3.507812-10.238281 2.113281-15.535156-1.390625-5.285156-4.757812-9.71875-9.484375-12.476562-9.765625-5.6875-22.316406-2.382813-28.011718 7.371094l-80.125 137.359374c-.980469 1.679688-2.632813 2.867188-4.542969 3.253907-1.914063.371093-3.890625-.066407-5.449219-1.234375l-57.398438-43.046875c-3.675781-2.753907-7.984374-4.078125-12.261718-4.078125zm0 0"></path></svg>